<svg xmlns="http://www.w3.org/2000/svg" fill="none" viewBox="0 0 174 32" aria-label="Logo" style="width:auto;height:100%"><path d="M2.833 10.66A2.837 2.837 0 0 1 0 7.825a2.837 2.837 0 0 1 2.833-2.834 2.837 2.837 0 0 1 2.834 2.834 2.837 2.837 0 0 1-2.834 2.833m0-4.555a1.723 1.723 0 0 0 0 3.445 1.724 1.724 0 0 0 0-3.445m0 12.552A2.837 2.837 0 0 1 0 15.822a2.837 2.837 0 0 1 2.833-2.834 2.837 2.837 0 0 1 2.834 2.834 2.837 2.837 0 0 1-2.834 2.833m0-4.554a1.722 1.722 0 0 0 0 3.443 1.722 1.722 0 1 0 0-3.443m0 12.539A2.837 2.837 0 0 1 0 23.806a2.837 2.837 0 0 1 2.833-2.833 2.837 2.837 0 0 1 2.834 2.833 2.837 2.837 0 0 1-2.834 2.834m0-4.555a1.723 1.723 0 0 0 0 3.445c.95 0 1.723-.772 1.723-1.722s-.772-1.723-1.723-1.723M24.376 10.66a2.837 2.837 0 0 1-2.833-2.834 2.837 2.837 0 0 1 2.833-2.834 2.837 2.837 0 0 1 2.834 2.834 2.837 2.837 0 0 1-2.834 2.833m0-4.555c-.948 0-1.722.772-1.722 1.722a1.724 1.724 0 0 0 3.445 0c0-.95-.772-1.722-1.723-1.722m0 12.551a2.837 2.837 0 0 1-2.833-2.833 2.837 2.837 0 0 1 2.833-2.834 2.837 2.837 0 0 1 2.834 2.834 2.837 2.837 0 0 1-2.834 2.833m0-4.554c-.948 0-1.722.772-1.722 1.72 0 .95.772 1.723 1.722 1.723s1.723-.772 1.723-1.722-.772-1.721-1.723-1.721m0 12.539a2.837 2.837 0 0 1-2.833-2.834 2.837 2.837 0 0 1 2.833-2.833 2.837 2.837 0 0 1 2.834 2.833 2.837 2.837 0 0 1-2.834 2.834m0-4.555a1.724 1.724 0 1 0 1.723 1.723c0-.95-.772-1.723-1.723-1.723m-10.771-7.43a2.837 2.837 0 0 1-2.834-2.833 2.837 2.837 0 0 1 2.834-2.834 2.837 2.837 0 0 1 2.833 2.834 2.837 2.837 0 0 1-2.833 2.833m0-4.554c-.949 0-1.723.772-1.723 1.722s.773 1.723 1.723 1.723 1.723-.772 1.723-1.723c0-.95-.773-1.722-1.723-1.722m0-3.434a2.837 2.837 0 0 1-2.834-2.834A2.837 2.837 0 0 1 13.606 1a2.837 2.837 0 0 1 2.833 2.833 2.837 2.837 0 0 1-2.833 2.834m0-4.554c-.949 0-1.723.772-1.723 1.722a1.724 1.724 0 0 0 3.446 0c0-.95-.773-1.722-1.723-1.722m-.001 20.534a2.837 2.837 0 0 1-2.834-2.833 2.837 2.837 0 0 1 2.834-2.834 2.837 2.837 0 0 1 2.833 2.834 2.837 2.837 0 0 1-2.833 2.833m0-4.554a1.724 1.724 0 0 0 0 3.445 1.724 1.724 0 0 0 0-3.445m0 12.547a2.837 2.837 0 0 1-2.834-2.834 2.837 2.837 0 0 1 2.834-2.833 2.837 2.837 0 0 1 2.833 2.833 2.837 2.837 0 0 1-2.833 2.834m0-4.555a1.724 1.724 0 1 0 1.723 1.723c0-.95-.773-1.723-1.723-1.723M9.094 11.154a.9.9 0 0 1-.342-.066l-1.845-.735a.926.926 0 1 1 .687-1.72l1.845.735a.926.926 0 0 1-.344 1.786zm0 7.835a.9.9 0 0 1-.342-.066l-1.845-.735a.925.925 0 1 1 .687-1.72l1.845.736a.925.925 0 0 1-.344 1.785zm10.82-3.914a.9.9 0 0 1-.342-.066l-1.844-.735a.926.926 0 0 1 .685-1.72l1.845.736a.926.926 0 0 1-.344 1.785m0-7.835a.9.9 0 0 1-.342-.066l-1.844-.735a.926.926 0 0 1 .685-1.72l1.845.735a.926.926 0 0 1-.344 1.786m0 15.668a.9.9 0 0 1-.342-.066l-1.844-.735a.926.926 0 0 1 .685-1.72l1.845.735a.926.926 0 0 1-.344 1.785m-12.616.281a.926.926 0 0 1-.344-1.785l1.845-.735a.925.925 0 1 1 .687 1.72l-1.845.734a.9.9 0 0 1-.342.066zm0-7.793a.926.926 0 0 1-.344-1.785l1.845-.735a.925.925 0 1 1 .687 1.72l-1.845.734a.9.9 0 0 1-.342.066zm0-8.18a.926.926 0 0 1-.344-1.785L8.8 4.695a.925.925 0 1 1 .687 1.72L7.64 7.15a.9.9 0 0 1-.342.065zm1.796 20.169a.9.9 0 0 1-.342-.066l-1.845-.735a.925.925 0 0 1 .686-1.72l1.844.736a.926.926 0 0 1-.343 1.785m8.976-16.229a.926.926 0 0 1-.344-1.787l1.844-.735a.927.927 0 0 1 .687 1.72l-1.844.736a.9.9 0 0 1-.342.066zm0 7.835a.926.926 0 0 1-.344-1.786l1.844-.736a.927.927 0 0 1 .687 1.721l-1.844.736a.9.9 0 0 1-.342.066zm0 8.393a.925.925 0 0 1-.343-1.785l1.843-.735a.925.925 0 1 1 .686 1.72l-1.845.735a.9.9 0 0 1-.342.065M49.146 1v23.347h-3.475l-.244-2.073c-1.16 1.8-3.018 2.408-4.847 2.408-4.421 0-7.744-2.926-7.744-7.864 0-5.183 3.262-7.865 7.653-7.865 1.584 0 4.055.854 4.938 2.408V3.039l3.72-2.037zm-12.59 15.816c0 2.622 1.889 4.421 4.268 4.421 2.38 0 4.36-1.708 4.36-4.421s-2.011-4.39-4.36-4.39-4.268 1.677-4.268 4.39m19.329 1.342c.244 1.859 1.859 3.2 4.48 3.2 1.373 0 3.17-.518 4.025-1.402l2.377 2.347c-1.586 1.645-4.177 2.438-6.463 2.438-5.182 0-8.261-3.201-8.261-8.017s3.11-7.865 7.988-7.865 8.17 3.11 7.59 9.299zm8.17-3.08c-.245-1.95-1.768-2.926-3.903-2.926-2.012 0-3.659.976-4.208 2.927h8.11m9.604 3.079c.244 1.859 1.859 3.2 4.48 3.2 1.373 0 3.171-.518 4.025-1.402l2.378 2.347c-1.586 1.645-4.177 2.438-6.463 2.438-5.183 0-8.262-3.201-8.262-8.017s3.11-7.865 7.989-7.865 8.17 3.11 7.59 9.299zm8.17-3.08c-.244-1.95-1.768-2.926-3.903-2.926-2.011 0-3.659.976-4.208 2.927h8.111m6.434 15.546V9.316l3.72 2.073c1.158-1.676 3.17-2.409 4.876-2.409 4.635 0 7.714 3.446 7.714 7.865s-2.774 7.866-7.592 7.866c-1.584 0-3.933-.488-4.999-2.133v8.047zm12.59-13.78c0-2.347-1.584-4.267-4.268-4.267s-4.269 1.92-4.269 4.267 1.739 4.269 4.269 4.269 4.268-1.92 4.268-4.269M111.367 3.64c0 2.897-4.39 2.897-4.39 0 0-2.895 4.39-2.895 4.39 0m-.335 5.614h-3.72v15.09h3.72zm14.42 15.094v-7.865c0-2.286-1.251-4.025-3.628-4.025s-3.842 1.92-3.842 4.208v7.683h-3.689V9.288l3.567 2.042c1.525-1.495 3.049-2.256 4.938-2.256 3.537 0 6.372 2.652 6.372 7.378v7.897h-3.72zm8.14-.001V12.793h-2.805V9.53h2.805V8.524c0-4.024 2.713-5.883 5.731-5.883 1.311 0 2.682.427 3.902 1.22l-1.372 2.774c-.793-.519-1.525-.793-2.286-.793-1.281 0-2.256.854-2.256 2.682v1.007h4.421v3.262h-4.421v11.554zm14.481-13.292c1.159-1.86 2.713-2.133 4.238-2.133s3.049.61 3.872 1.433l-1.677 3.232c-.763-.64-1.464-.976-2.683-.976-1.95 0-3.75 1.037-3.75 3.811v7.926h-3.719V9.318l3.719 1.739zm21.308.331 3.689-2.072v15.03h-3.506l-.183-2.195c-.854 1.767-3.201 2.621-4.877 2.652-4.451.03-7.742-2.713-7.742-7.987 0-5.273 3.445-7.897 7.834-7.864 2.011 0 3.933.945 4.785 2.438zm-8.901 5.427c0 2.865 1.981 4.573 4.45 4.573 5.853 0 5.853-9.115 0-9.115-2.469 0-4.45 1.676-4.45 4.543" fill="#0f172a"></path></svg>
